<mxfile host="app.diagrams.net" agent="Mozilla/5.0 (Macintosh; Intel Mac OS X 10.15; rv:130.0) Gecko/20100101 Firefox/130.0" version="24.7.17">
  <diagram name="Страница — 1" id="5PDd-mHP-Hy-ZowETi-h">
    <mxGraphModel dx="2726" dy="1566" grid="1" gridSize="10" guides="1" tooltips="1" connect="1" arrows="1" fold="1" page="1" pageScale="1" pageWidth="3700" pageHeight="1100" math="0" shadow="0">
      <root>
        <mxCell id="0" />
        <mxCell id="1" parent="0" />
        <mxCell id="CZsBmXI7kkxCmdzXljBZ-5" value="" style="edgeStyle=orthogonalEdgeStyle;rounded=0;orthogonalLoop=1;jettySize=auto;html=1;exitX=0;exitY=0.5;exitDx=0;exitDy=0;entryX=0;entryY=0.5;entryDx=0;entryDy=0;" edge="1" parent="1" source="CZsBmXI7kkxCmdzXljBZ-2" target="CZsBmXI7kkxCmdzXljBZ-4">
          <mxGeometry relative="1" as="geometry">
            <Array as="points">
              <mxPoint x="120" y="470" />
              <mxPoint x="120" y="685" />
            </Array>
          </mxGeometry>
        </mxCell>
        <mxCell id="CZsBmXI7kkxCmdzXljBZ-15" value="" style="edgeStyle=orthogonalEdgeStyle;rounded=0;orthogonalLoop=1;jettySize=auto;html=1;entryX=0;entryY=0.5;entryDx=0;entryDy=0;" edge="1" parent="1" source="CZsBmXI7kkxCmdzXljBZ-2" target="CZsBmXI7kkxCmdzXljBZ-14">
          <mxGeometry relative="1" as="geometry">
            <Array as="points">
              <mxPoint x="120" y="470" />
              <mxPoint x="120" y="928" />
            </Array>
          </mxGeometry>
        </mxCell>
        <mxCell id="CZsBmXI7kkxCmdzXljBZ-17" value="" style="edgeStyle=orthogonalEdgeStyle;rounded=0;orthogonalLoop=1;jettySize=auto;html=1;entryX=0;entryY=0.5;entryDx=0;entryDy=0;" edge="1" parent="1" source="CZsBmXI7kkxCmdzXljBZ-2" target="CZsBmXI7kkxCmdzXljBZ-16">
          <mxGeometry relative="1" as="geometry">
            <mxPoint x="120" y="1040" as="targetPoint" />
            <Array as="points">
              <mxPoint x="120" y="470" />
              <mxPoint x="120" y="1025" />
            </Array>
          </mxGeometry>
        </mxCell>
        <mxCell id="CZsBmXI7kkxCmdzXljBZ-84" style="edgeStyle=orthogonalEdgeStyle;rounded=0;orthogonalLoop=1;jettySize=auto;html=1;strokeColor=default;curved=0;endArrow=none;endFill=0;" edge="1" parent="1" source="CZsBmXI7kkxCmdzXljBZ-127">
          <mxGeometry relative="1" as="geometry">
            <mxPoint x="3540" y="470" as="targetPoint" />
          </mxGeometry>
        </mxCell>
        <mxCell id="CZsBmXI7kkxCmdzXljBZ-88" style="edgeStyle=orthogonalEdgeStyle;rounded=0;orthogonalLoop=1;jettySize=auto;html=1;entryX=0;entryY=0.5;entryDx=0;entryDy=0;" edge="1" parent="1" source="CZsBmXI7kkxCmdzXljBZ-2" target="CZsBmXI7kkxCmdzXljBZ-12">
          <mxGeometry relative="1" as="geometry">
            <mxPoint x="100" y="830" as="targetPoint" />
            <Array as="points">
              <mxPoint x="120" y="470" />
              <mxPoint x="120" y="825" />
            </Array>
          </mxGeometry>
        </mxCell>
        <mxCell id="CZsBmXI7kkxCmdzXljBZ-2" value="Менеджер проєкту" style="whiteSpace=wrap;html=1;rounded=1;" vertex="1" parent="1">
          <mxGeometry x="180" y="440" width="150" height="60" as="geometry" />
        </mxCell>
        <mxCell id="CZsBmXI7kkxCmdzXljBZ-7" value="" style="edgeStyle=orthogonalEdgeStyle;rounded=0;orthogonalLoop=1;jettySize=auto;html=1;" edge="1" parent="1" source="CZsBmXI7kkxCmdzXljBZ-4" target="CZsBmXI7kkxCmdzXljBZ-6">
          <mxGeometry relative="1" as="geometry" />
        </mxCell>
        <mxCell id="CZsBmXI7kkxCmdzXljBZ-4" value="Програміст" style="whiteSpace=wrap;html=1;rounded=1;" vertex="1" parent="1">
          <mxGeometry x="180" y="660" width="120" height="50" as="geometry" />
        </mxCell>
        <mxCell id="CZsBmXI7kkxCmdzXljBZ-9" value="" style="edgeStyle=orthogonalEdgeStyle;rounded=0;orthogonalLoop=1;jettySize=auto;html=1;entryX=0;entryY=0.5;entryDx=0;entryDy=0;" edge="1" parent="1" source="CZsBmXI7kkxCmdzXljBZ-6" target="CZsBmXI7kkxCmdzXljBZ-8">
          <mxGeometry relative="1" as="geometry">
            <Array as="points">
              <mxPoint x="540" y="685" />
              <mxPoint x="540" y="628" />
            </Array>
          </mxGeometry>
        </mxCell>
        <mxCell id="CZsBmXI7kkxCmdzXljBZ-11" value="" style="edgeStyle=orthogonalEdgeStyle;rounded=0;orthogonalLoop=1;jettySize=auto;html=1;entryX=0;entryY=0.5;entryDx=0;entryDy=0;exitX=1;exitY=0.5;exitDx=0;exitDy=0;" edge="1" parent="1" source="CZsBmXI7kkxCmdzXljBZ-6" target="CZsBmXI7kkxCmdzXljBZ-10">
          <mxGeometry relative="1" as="geometry">
            <Array as="points">
              <mxPoint x="540" y="685" />
              <mxPoint x="540" y="740" />
            </Array>
          </mxGeometry>
        </mxCell>
        <mxCell id="CZsBmXI7kkxCmdzXljBZ-6" value="Team Lead" style="whiteSpace=wrap;html=1;rounded=1;" vertex="1" parent="1">
          <mxGeometry x="360" y="655" width="120" height="60" as="geometry" />
        </mxCell>
        <mxCell id="CZsBmXI7kkxCmdzXljBZ-8" value="FrontEnd програміст" style="whiteSpace=wrap;html=1;rounded=1;" vertex="1" parent="1">
          <mxGeometry x="590" y="595" width="110" height="65" as="geometry" />
        </mxCell>
        <mxCell id="CZsBmXI7kkxCmdzXljBZ-10" value="BackEnd програміст" style="whiteSpace=wrap;html=1;rounded=1;" vertex="1" parent="1">
          <mxGeometry x="590" y="710" width="110" height="60" as="geometry" />
        </mxCell>
        <mxCell id="CZsBmXI7kkxCmdzXljBZ-12" value="Дизайнер" style="whiteSpace=wrap;html=1;rounded=1;" vertex="1" parent="1">
          <mxGeometry x="180" y="800" width="120" height="50" as="geometry" />
        </mxCell>
        <mxCell id="CZsBmXI7kkxCmdzXljBZ-14" value="Тестувальник" style="whiteSpace=wrap;html=1;rounded=1;" vertex="1" parent="1">
          <mxGeometry x="180" y="900" width="120" height="55.5" as="geometry" />
        </mxCell>
        <mxCell id="CZsBmXI7kkxCmdzXljBZ-16" value="Аналітик" style="whiteSpace=wrap;html=1;rounded=1;" vertex="1" parent="1">
          <mxGeometry x="180" y="1000" width="120" height="50" as="geometry" />
        </mxCell>
        <mxCell id="CZsBmXI7kkxCmdzXljBZ-18" style="edgeStyle=orthogonalEdgeStyle;rounded=0;orthogonalLoop=1;jettySize=auto;html=1;entryX=0;entryY=0.5;entryDx=0;entryDy=0;textDirection=vertical-rl;exitX=0;exitY=0.5;exitDx=0;exitDy=0;" edge="1" parent="1" source="CZsBmXI7kkxCmdzXljBZ-19" target="CZsBmXI7kkxCmdzXljBZ-21">
          <mxGeometry relative="1" as="geometry" />
        </mxCell>
        <mxCell id="CZsBmXI7kkxCmdzXljBZ-65" style="edgeStyle=orthogonalEdgeStyle;rounded=0;orthogonalLoop=1;jettySize=auto;html=1;" edge="1" parent="1" source="CZsBmXI7kkxCmdzXljBZ-19" target="CZsBmXI7kkxCmdzXljBZ-23">
          <mxGeometry relative="1" as="geometry" />
        </mxCell>
        <mxCell id="CZsBmXI7kkxCmdzXljBZ-66" style="edgeStyle=orthogonalEdgeStyle;rounded=0;orthogonalLoop=1;jettySize=auto;html=1;" edge="1" parent="1" source="CZsBmXI7kkxCmdzXljBZ-19" target="CZsBmXI7kkxCmdzXljBZ-25">
          <mxGeometry relative="1" as="geometry" />
        </mxCell>
        <mxCell id="CZsBmXI7kkxCmdzXljBZ-67" style="edgeStyle=orthogonalEdgeStyle;rounded=0;orthogonalLoop=1;jettySize=auto;html=1;exitX=0;exitY=0.5;exitDx=0;exitDy=0;" edge="1" parent="1" source="CZsBmXI7kkxCmdzXljBZ-19" target="CZsBmXI7kkxCmdzXljBZ-27">
          <mxGeometry relative="1" as="geometry" />
        </mxCell>
        <mxCell id="CZsBmXI7kkxCmdzXljBZ-19" value="&lt;font color=&quot;#ea6b66&quot;&gt;Аналіз предметної області&lt;/font&gt;" style="rounded=1;whiteSpace=wrap;html=1;direction=east;rotation=-90;" vertex="1" parent="1">
          <mxGeometry x="1030" y="60" width="150" height="50" as="geometry" />
        </mxCell>
        <mxCell id="CZsBmXI7kkxCmdzXljBZ-21" value="&lt;div&gt;Визначення цілей та задач&lt;/div&gt;" style="whiteSpace=wrap;html=1;rounded=1;direction=north;textDirection=vertical-rl;rotation=-180;" vertex="1" parent="1">
          <mxGeometry x="960" y="210" width="50" height="150" as="geometry" />
        </mxCell>
        <mxCell id="CZsBmXI7kkxCmdzXljBZ-23" value="&lt;div&gt;Дослідження ринку та конкурентів&lt;/div&gt;" style="whiteSpace=wrap;html=1;rounded=1;direction=north;textDirection=vertical-rl;rotation=-180;" vertex="1" parent="1">
          <mxGeometry x="1040" y="210" width="50" height="150" as="geometry" />
        </mxCell>
        <mxCell id="CZsBmXI7kkxCmdzXljBZ-25" value="&lt;div&gt;Визначення цільової аудітроії&lt;br&gt;&lt;/div&gt;" style="whiteSpace=wrap;html=1;rounded=1;direction=north;textDirection=vertical-rl;rotation=-180;" vertex="1" parent="1">
          <mxGeometry x="1120" y="210" width="50" height="150" as="geometry" />
        </mxCell>
        <mxCell id="CZsBmXI7kkxCmdzXljBZ-137" style="edgeStyle=orthogonalEdgeStyle;rounded=0;orthogonalLoop=1;jettySize=auto;html=1;entryX=0.5;entryY=0;entryDx=0;entryDy=0;endArrow=none;endFill=0;" edge="1" parent="1" source="CZsBmXI7kkxCmdzXljBZ-27" target="CZsBmXI7kkxCmdzXljBZ-127">
          <mxGeometry relative="1" as="geometry" />
        </mxCell>
        <mxCell id="CZsBmXI7kkxCmdzXljBZ-27" value="Попередній аналіз витрат" style="whiteSpace=wrap;html=1;rounded=1;direction=north;textDirection=vertical-rl;rotation=-180;" vertex="1" parent="1">
          <mxGeometry x="1200" y="210" width="40" height="150" as="geometry" />
        </mxCell>
        <mxCell id="CZsBmXI7kkxCmdzXljBZ-68" style="edgeStyle=orthogonalEdgeStyle;rounded=0;orthogonalLoop=1;jettySize=auto;html=1;entryX=1;entryY=0.5;entryDx=0;entryDy=0;exitX=0;exitY=0.5;exitDx=0;exitDy=0;" edge="1" parent="1" source="CZsBmXI7kkxCmdzXljBZ-29" target="CZsBmXI7kkxCmdzXljBZ-31">
          <mxGeometry relative="1" as="geometry" />
        </mxCell>
        <mxCell id="CZsBmXI7kkxCmdzXljBZ-69" style="edgeStyle=orthogonalEdgeStyle;rounded=0;orthogonalLoop=1;jettySize=auto;html=1;entryX=1;entryY=0.5;entryDx=0;entryDy=0;exitX=0;exitY=0.5;exitDx=0;exitDy=0;" edge="1" parent="1" source="CZsBmXI7kkxCmdzXljBZ-29" target="CZsBmXI7kkxCmdzXljBZ-33">
          <mxGeometry relative="1" as="geometry" />
        </mxCell>
        <mxCell id="CZsBmXI7kkxCmdzXljBZ-70" style="edgeStyle=orthogonalEdgeStyle;rounded=0;orthogonalLoop=1;jettySize=auto;html=1;" edge="1" parent="1" source="CZsBmXI7kkxCmdzXljBZ-29" target="CZsBmXI7kkxCmdzXljBZ-35">
          <mxGeometry relative="1" as="geometry" />
        </mxCell>
        <mxCell id="CZsBmXI7kkxCmdzXljBZ-71" style="edgeStyle=orthogonalEdgeStyle;rounded=0;orthogonalLoop=1;jettySize=auto;html=1;exitX=0;exitY=0.5;exitDx=0;exitDy=0;" edge="1" parent="1" source="CZsBmXI7kkxCmdzXljBZ-29" target="CZsBmXI7kkxCmdzXljBZ-37">
          <mxGeometry relative="1" as="geometry" />
        </mxCell>
        <mxCell id="CZsBmXI7kkxCmdzXljBZ-72" style="edgeStyle=orthogonalEdgeStyle;rounded=0;orthogonalLoop=1;jettySize=auto;html=1;exitX=0;exitY=0.5;exitDx=0;exitDy=0;" edge="1" parent="1" source="CZsBmXI7kkxCmdzXljBZ-29" target="CZsBmXI7kkxCmdzXljBZ-39">
          <mxGeometry relative="1" as="geometry" />
        </mxCell>
        <mxCell id="CZsBmXI7kkxCmdzXljBZ-29" value="&lt;div&gt;&lt;font color=&quot;#ea6b66&quot;&gt;Проєктування&lt;/font&gt;&lt;/div&gt;" style="whiteSpace=wrap;html=1;rounded=1;direction=east;rotation=-90;" vertex="1" parent="1">
          <mxGeometry x="1710" y="52.5" width="115" height="50" as="geometry" />
        </mxCell>
        <mxCell id="CZsBmXI7kkxCmdzXljBZ-31" value="Проєктування UI застосунку" style="whiteSpace=wrap;html=1;rounded=1;arcSize=20;direction=south;textDirection=vertical-rl;rotation=-180;" vertex="1" parent="1">
          <mxGeometry x="1590" y="200" width="50" height="160" as="geometry" />
        </mxCell>
        <mxCell id="CZsBmXI7kkxCmdzXljBZ-33" value="Проєктування UX застосунку" style="whiteSpace=wrap;html=1;rounded=1;arcSize=20;direction=south;textDirection=vertical-rl;rotation=-180;" vertex="1" parent="1">
          <mxGeometry x="1670" y="200" width="50" height="160" as="geometry" />
        </mxCell>
        <mxCell id="CZsBmXI7kkxCmdzXljBZ-35" value="&lt;div&gt;Проєктування баз данних&lt;/div&gt;" style="whiteSpace=wrap;html=1;rounded=1;arcSize=20;rotation=-90;" vertex="1" parent="1">
          <mxGeometry x="1690" y="260" width="160" height="40" as="geometry" />
        </mxCell>
        <mxCell id="CZsBmXI7kkxCmdzXljBZ-37" value="&lt;div&gt;Проєктування алгоритму обробки даних&lt;/div&gt;" style="whiteSpace=wrap;html=1;rounded=1;arcSize=20;rotation=-90;" vertex="1" parent="1">
          <mxGeometry x="1760" y="255" width="160" height="50" as="geometry" />
        </mxCell>
        <mxCell id="CZsBmXI7kkxCmdzXljBZ-39" value="Проєктування системи безпеки та інформаційної безпеки" style="whiteSpace=wrap;html=1;rounded=1;arcSize=20;rotation=-90;" vertex="1" parent="1">
          <mxGeometry x="1850" y="250" width="160" height="60" as="geometry" />
        </mxCell>
        <mxCell id="CZsBmXI7kkxCmdzXljBZ-73" style="edgeStyle=orthogonalEdgeStyle;rounded=0;orthogonalLoop=1;jettySize=auto;html=1;exitX=0;exitY=0.5;exitDx=0;exitDy=0;" edge="1" parent="1" source="CZsBmXI7kkxCmdzXljBZ-41" target="CZsBmXI7kkxCmdzXljBZ-43">
          <mxGeometry relative="1" as="geometry" />
        </mxCell>
        <mxCell id="CZsBmXI7kkxCmdzXljBZ-74" style="edgeStyle=orthogonalEdgeStyle;rounded=0;orthogonalLoop=1;jettySize=auto;html=1;exitX=0;exitY=0.5;exitDx=0;exitDy=0;" edge="1" parent="1" source="CZsBmXI7kkxCmdzXljBZ-41" target="CZsBmXI7kkxCmdzXljBZ-45">
          <mxGeometry relative="1" as="geometry" />
        </mxCell>
        <mxCell id="CZsBmXI7kkxCmdzXljBZ-75" style="edgeStyle=orthogonalEdgeStyle;rounded=0;orthogonalLoop=1;jettySize=auto;html=1;" edge="1" parent="1" source="CZsBmXI7kkxCmdzXljBZ-41" target="CZsBmXI7kkxCmdzXljBZ-47">
          <mxGeometry relative="1" as="geometry" />
        </mxCell>
        <mxCell id="CZsBmXI7kkxCmdzXljBZ-76" style="edgeStyle=orthogonalEdgeStyle;rounded=0;orthogonalLoop=1;jettySize=auto;html=1;exitX=0;exitY=0.5;exitDx=0;exitDy=0;" edge="1" parent="1" source="CZsBmXI7kkxCmdzXljBZ-41" target="CZsBmXI7kkxCmdzXljBZ-49">
          <mxGeometry relative="1" as="geometry" />
        </mxCell>
        <mxCell id="CZsBmXI7kkxCmdzXljBZ-77" style="edgeStyle=orthogonalEdgeStyle;rounded=0;orthogonalLoop=1;jettySize=auto;html=1;exitX=0;exitY=0.5;exitDx=0;exitDy=0;" edge="1" parent="1" source="CZsBmXI7kkxCmdzXljBZ-41" target="CZsBmXI7kkxCmdzXljBZ-51">
          <mxGeometry relative="1" as="geometry" />
        </mxCell>
        <mxCell id="CZsBmXI7kkxCmdzXljBZ-41" value="&lt;font color=&quot;#ea6b66&quot;&gt;Розробка&lt;/font&gt;" style="whiteSpace=wrap;html=1;rounded=1;arcSize=20;rotation=-90;" vertex="1" parent="1">
          <mxGeometry x="2500" y="52.5" width="120" height="50" as="geometry" />
        </mxCell>
        <mxCell id="CZsBmXI7kkxCmdzXljBZ-43" value="Розробка UI застосунку" style="whiteSpace=wrap;html=1;rounded=1;arcSize=20;rotation=-90;" vertex="1" parent="1">
          <mxGeometry x="2310" y="255" width="160" height="50" as="geometry" />
        </mxCell>
        <mxCell id="CZsBmXI7kkxCmdzXljBZ-45" value="Розробка UX застосунку" style="whiteSpace=wrap;html=1;rounded=1;arcSize=20;rotation=-90;" vertex="1" parent="1">
          <mxGeometry x="2400" y="255" width="160" height="50" as="geometry" />
        </mxCell>
        <mxCell id="CZsBmXI7kkxCmdzXljBZ-47" value="&lt;div&gt;Розробка баз данних&lt;/div&gt;" style="whiteSpace=wrap;html=1;rounded=1;arcSize=20;rotation=-90;" vertex="1" parent="1">
          <mxGeometry x="2480" y="260" width="160" height="40" as="geometry" />
        </mxCell>
        <mxCell id="CZsBmXI7kkxCmdzXljBZ-49" value="&lt;div&gt;Розробка алгоритму обробки даних&lt;/div&gt;" style="whiteSpace=wrap;html=1;rounded=1;arcSize=20;rotation=-90;" vertex="1" parent="1">
          <mxGeometry x="2560" y="255" width="160" height="50" as="geometry" />
        </mxCell>
        <mxCell id="CZsBmXI7kkxCmdzXljBZ-51" value="Розробка системи безпеки та інформаційної безпеки" style="whiteSpace=wrap;html=1;rounded=1;arcSize=20;rotation=-90;" vertex="1" parent="1">
          <mxGeometry x="2640" y="255" width="160" height="50" as="geometry" />
        </mxCell>
        <mxCell id="CZsBmXI7kkxCmdzXljBZ-78" style="edgeStyle=orthogonalEdgeStyle;rounded=0;orthogonalLoop=1;jettySize=auto;html=1;" edge="1" parent="1" source="CZsBmXI7kkxCmdzXljBZ-53" target="CZsBmXI7kkxCmdzXljBZ-59">
          <mxGeometry relative="1" as="geometry" />
        </mxCell>
        <mxCell id="CZsBmXI7kkxCmdzXljBZ-79" style="edgeStyle=orthogonalEdgeStyle;rounded=0;orthogonalLoop=1;jettySize=auto;html=1;exitX=0;exitY=0.5;exitDx=0;exitDy=0;" edge="1" parent="1" source="CZsBmXI7kkxCmdzXljBZ-53" target="CZsBmXI7kkxCmdzXljBZ-57">
          <mxGeometry relative="1" as="geometry" />
        </mxCell>
        <mxCell id="CZsBmXI7kkxCmdzXljBZ-80" style="edgeStyle=orthogonalEdgeStyle;rounded=0;orthogonalLoop=1;jettySize=auto;html=1;exitX=0;exitY=0.5;exitDx=0;exitDy=0;" edge="1" parent="1" source="CZsBmXI7kkxCmdzXljBZ-53" target="CZsBmXI7kkxCmdzXljBZ-62">
          <mxGeometry relative="1" as="geometry" />
        </mxCell>
        <mxCell id="CZsBmXI7kkxCmdzXljBZ-81" style="edgeStyle=orthogonalEdgeStyle;rounded=0;orthogonalLoop=1;jettySize=auto;html=1;exitX=0;exitY=0.5;exitDx=0;exitDy=0;" edge="1" parent="1" source="CZsBmXI7kkxCmdzXljBZ-53" target="CZsBmXI7kkxCmdzXljBZ-55">
          <mxGeometry relative="1" as="geometry" />
        </mxCell>
        <mxCell id="CZsBmXI7kkxCmdzXljBZ-82" style="edgeStyle=orthogonalEdgeStyle;rounded=0;orthogonalLoop=1;jettySize=auto;html=1;exitX=0;exitY=0.5;exitDx=0;exitDy=0;" edge="1" parent="1" source="CZsBmXI7kkxCmdzXljBZ-53" target="CZsBmXI7kkxCmdzXljBZ-61">
          <mxGeometry relative="1" as="geometry" />
        </mxCell>
        <mxCell id="CZsBmXI7kkxCmdzXljBZ-53" value="&lt;font color=&quot;#ea6b66&quot;&gt;Тестування&lt;/font&gt;" style="whiteSpace=wrap;html=1;rounded=1;arcSize=20;rotation=-90;" vertex="1" parent="1">
          <mxGeometry x="3310" y="52.5" width="120" height="50" as="geometry" />
        </mxCell>
        <mxCell id="CZsBmXI7kkxCmdzXljBZ-55" value="Тестування UI застосунку" style="whiteSpace=wrap;html=1;rounded=1;arcSize=20;direction=west;rotation=-90;" vertex="1" parent="1">
          <mxGeometry x="3120" y="255" width="160" height="50" as="geometry" />
        </mxCell>
        <mxCell id="CZsBmXI7kkxCmdzXljBZ-57" value="Тестування UX застосунку" style="whiteSpace=wrap;html=1;rounded=1;arcSize=20;rotation=-90;" vertex="1" parent="1">
          <mxGeometry x="3210" y="255" width="160" height="50" as="geometry" />
        </mxCell>
        <mxCell id="CZsBmXI7kkxCmdzXljBZ-59" value="&lt;div&gt;Тестування баз данних&lt;/div&gt;" style="whiteSpace=wrap;html=1;rounded=1;arcSize=20;rotation=-90;" vertex="1" parent="1">
          <mxGeometry x="3290" y="260" width="160" height="40" as="geometry" />
        </mxCell>
        <mxCell id="CZsBmXI7kkxCmdzXljBZ-91" style="edgeStyle=orthogonalEdgeStyle;rounded=0;orthogonalLoop=1;jettySize=auto;html=1;endArrow=none;endFill=0;" edge="1" parent="1" source="CZsBmXI7kkxCmdzXljBZ-224">
          <mxGeometry relative="1" as="geometry">
            <mxPoint x="3540" y="1030" as="targetPoint" />
          </mxGeometry>
        </mxCell>
        <mxCell id="CZsBmXI7kkxCmdzXljBZ-61" value="&lt;div&gt;Тестування алгоритму обробки даних&lt;/div&gt;" style="whiteSpace=wrap;html=1;rounded=1;arcSize=20;rotation=-90;" vertex="1" parent="1">
          <mxGeometry x="3460" y="255" width="160" height="50" as="geometry" />
        </mxCell>
        <mxCell id="CZsBmXI7kkxCmdzXljBZ-62" value="Тестування системи безпеки та інформаційної безпеки" style="whiteSpace=wrap;html=1;rounded=1;arcSize=20;rotation=-90;" vertex="1" parent="1">
          <mxGeometry x="3370" y="250" width="160" height="60" as="geometry" />
        </mxCell>
        <mxCell id="CZsBmXI7kkxCmdzXljBZ-85" style="edgeStyle=orthogonalEdgeStyle;rounded=0;orthogonalLoop=1;jettySize=auto;html=1;strokeColor=default;curved=0;endArrow=none;endFill=0;" edge="1" parent="1" source="CZsBmXI7kkxCmdzXljBZ-228">
          <mxGeometry relative="1" as="geometry">
            <mxPoint x="3540" y="620" as="targetPoint" />
            <mxPoint x="1760" y="620" as="sourcePoint" />
            <Array as="points">
              <mxPoint x="700" y="620" />
              <mxPoint x="3530" y="620" />
            </Array>
          </mxGeometry>
        </mxCell>
        <mxCell id="CZsBmXI7kkxCmdzXljBZ-86" style="edgeStyle=orthogonalEdgeStyle;rounded=0;orthogonalLoop=1;jettySize=auto;html=1;strokeColor=default;curved=0;endArrow=none;endFill=0;exitX=1;exitY=0.5;exitDx=0;exitDy=0;" edge="1" parent="1" source="CZsBmXI7kkxCmdzXljBZ-211">
          <mxGeometry relative="1" as="geometry">
            <mxPoint x="3540" y="740" as="targetPoint" />
            <mxPoint x="720" y="739.6" as="sourcePoint" />
          </mxGeometry>
        </mxCell>
        <mxCell id="CZsBmXI7kkxCmdzXljBZ-87" style="edgeStyle=orthogonalEdgeStyle;rounded=0;orthogonalLoop=1;jettySize=auto;html=1;strokeColor=default;curved=0;endArrow=none;endFill=0;exitX=1;exitY=0.5;exitDx=0;exitDy=0;" edge="1" parent="1" source="CZsBmXI7kkxCmdzXljBZ-233">
          <mxGeometry relative="1" as="geometry">
            <mxPoint x="3540" y="825" as="targetPoint" />
            <mxPoint x="420" y="860" as="sourcePoint" />
            <Array as="points">
              <mxPoint x="3540" y="825" />
            </Array>
          </mxGeometry>
        </mxCell>
        <mxCell id="CZsBmXI7kkxCmdzXljBZ-89" style="edgeStyle=orthogonalEdgeStyle;rounded=0;orthogonalLoop=1;jettySize=auto;html=1;strokeColor=default;curved=0;endArrow=none;endFill=0;exitX=1;exitY=0.5;exitDx=0;exitDy=0;" edge="1" parent="1" source="CZsBmXI7kkxCmdzXljBZ-222">
          <mxGeometry relative="1" as="geometry">
            <mxPoint x="3540" y="928" as="targetPoint" />
            <mxPoint x="340" y="920" as="sourcePoint" />
            <Array as="points">
              <mxPoint x="3530" y="928" />
              <mxPoint x="3540" y="928" />
            </Array>
          </mxGeometry>
        </mxCell>
        <mxCell id="CZsBmXI7kkxCmdzXljBZ-90" style="edgeStyle=orthogonalEdgeStyle;rounded=0;orthogonalLoop=1;jettySize=auto;html=1;strokeColor=default;curved=0;endArrow=none;endFill=0;exitX=1;exitY=0.5;exitDx=0;exitDy=0;" edge="1" parent="1">
          <mxGeometry relative="1" as="geometry">
            <mxPoint x="3540.01" y="1029.99" as="targetPoint" />
            <mxPoint x="300.01" y="1019.99" as="sourcePoint" />
            <Array as="points">
              <mxPoint x="3540.01" y="1029.99" />
            </Array>
          </mxGeometry>
        </mxCell>
        <mxCell id="CZsBmXI7kkxCmdzXljBZ-92" style="edgeStyle=orthogonalEdgeStyle;rounded=0;orthogonalLoop=1;jettySize=auto;html=1;endArrow=none;endFill=0;" edge="1" parent="1">
          <mxGeometry relative="1" as="geometry">
            <mxPoint x="3449.29" y="1030" as="targetPoint" />
            <mxPoint x="3449.29" y="360" as="sourcePoint" />
          </mxGeometry>
        </mxCell>
        <mxCell id="CZsBmXI7kkxCmdzXljBZ-93" style="edgeStyle=orthogonalEdgeStyle;rounded=0;orthogonalLoop=1;jettySize=auto;html=1;endArrow=none;endFill=0;" edge="1" parent="1" source="CZsBmXI7kkxCmdzXljBZ-220">
          <mxGeometry relative="1" as="geometry">
            <mxPoint x="3368.57" y="1030" as="targetPoint" />
            <mxPoint x="3368.57" y="360" as="sourcePoint" />
          </mxGeometry>
        </mxCell>
        <mxCell id="CZsBmXI7kkxCmdzXljBZ-94" style="edgeStyle=orthogonalEdgeStyle;rounded=0;orthogonalLoop=1;jettySize=auto;html=1;endArrow=none;endFill=0;" edge="1" parent="1" source="CZsBmXI7kkxCmdzXljBZ-218">
          <mxGeometry relative="1" as="geometry">
            <mxPoint x="3288.57" y="1030" as="targetPoint" />
            <mxPoint x="3288.57" y="360" as="sourcePoint" />
          </mxGeometry>
        </mxCell>
        <mxCell id="CZsBmXI7kkxCmdzXljBZ-95" style="edgeStyle=orthogonalEdgeStyle;rounded=0;orthogonalLoop=1;jettySize=auto;html=1;endArrow=none;endFill=0;" edge="1" parent="1" source="CZsBmXI7kkxCmdzXljBZ-228">
          <mxGeometry relative="1" as="geometry">
            <mxPoint x="3199.29" y="1030" as="targetPoint" />
            <mxPoint x="3199.29" y="360" as="sourcePoint" />
          </mxGeometry>
        </mxCell>
        <mxCell id="CZsBmXI7kkxCmdzXljBZ-96" style="edgeStyle=orthogonalEdgeStyle;rounded=0;orthogonalLoop=1;jettySize=auto;html=1;endArrow=none;endFill=0;" edge="1" parent="1">
          <mxGeometry relative="1" as="geometry">
            <mxPoint x="2720" y="1030" as="targetPoint" />
            <mxPoint x="2720" y="360" as="sourcePoint" />
          </mxGeometry>
        </mxCell>
        <mxCell id="CZsBmXI7kkxCmdzXljBZ-97" style="edgeStyle=orthogonalEdgeStyle;rounded=0;orthogonalLoop=1;jettySize=auto;html=1;endArrow=none;endFill=0;" edge="1" parent="1" source="CZsBmXI7kkxCmdzXljBZ-209">
          <mxGeometry relative="1" as="geometry">
            <mxPoint x="2638.57" y="1030" as="targetPoint" />
            <mxPoint x="2638.57" y="360" as="sourcePoint" />
          </mxGeometry>
        </mxCell>
        <mxCell id="CZsBmXI7kkxCmdzXljBZ-98" style="edgeStyle=orthogonalEdgeStyle;rounded=0;orthogonalLoop=1;jettySize=auto;html=1;endArrow=none;endFill=0;" edge="1" parent="1" source="CZsBmXI7kkxCmdzXljBZ-206">
          <mxGeometry relative="1" as="geometry">
            <mxPoint x="2558.5699999999997" y="1030" as="targetPoint" />
            <mxPoint x="2558.5699999999997" y="360" as="sourcePoint" />
          </mxGeometry>
        </mxCell>
        <mxCell id="CZsBmXI7kkxCmdzXljBZ-99" style="edgeStyle=orthogonalEdgeStyle;rounded=0;orthogonalLoop=1;jettySize=auto;html=1;endArrow=none;endFill=0;" edge="1" parent="1" source="CZsBmXI7kkxCmdzXljBZ-197">
          <mxGeometry relative="1" as="geometry">
            <mxPoint x="2478.5699999999997" y="1030" as="targetPoint" />
            <mxPoint x="2478.5699999999997" y="360" as="sourcePoint" />
          </mxGeometry>
        </mxCell>
        <mxCell id="CZsBmXI7kkxCmdzXljBZ-100" style="edgeStyle=orthogonalEdgeStyle;rounded=0;orthogonalLoop=1;jettySize=auto;html=1;endArrow=none;endFill=0;" edge="1" parent="1" source="CZsBmXI7kkxCmdzXljBZ-195">
          <mxGeometry relative="1" as="geometry">
            <mxPoint x="2389.29" y="1030" as="targetPoint" />
            <mxPoint x="2389.29" y="360" as="sourcePoint" />
          </mxGeometry>
        </mxCell>
        <mxCell id="CZsBmXI7kkxCmdzXljBZ-101" style="edgeStyle=orthogonalEdgeStyle;rounded=0;orthogonalLoop=1;jettySize=auto;html=1;endArrow=none;endFill=0;" edge="1" parent="1">
          <mxGeometry relative="1" as="geometry">
            <mxPoint x="1928.75" y="1030" as="targetPoint" />
            <mxPoint x="1928.75" y="360" as="sourcePoint" />
          </mxGeometry>
        </mxCell>
        <mxCell id="CZsBmXI7kkxCmdzXljBZ-102" style="edgeStyle=orthogonalEdgeStyle;rounded=0;orthogonalLoop=1;jettySize=auto;html=1;endArrow=none;endFill=0;" edge="1" parent="1" source="CZsBmXI7kkxCmdzXljBZ-185">
          <mxGeometry relative="1" as="geometry">
            <mxPoint x="1839.5" y="1030" as="targetPoint" />
            <mxPoint x="1839.5" y="360" as="sourcePoint" />
          </mxGeometry>
        </mxCell>
        <mxCell id="CZsBmXI7kkxCmdzXljBZ-103" style="edgeStyle=orthogonalEdgeStyle;rounded=0;orthogonalLoop=1;jettySize=auto;html=1;endArrow=none;endFill=0;" edge="1" parent="1" source="CZsBmXI7kkxCmdzXljBZ-182">
          <mxGeometry relative="1" as="geometry">
            <mxPoint x="1769.5" y="1030" as="targetPoint" />
            <mxPoint x="1769.5" y="360" as="sourcePoint" />
          </mxGeometry>
        </mxCell>
        <mxCell id="CZsBmXI7kkxCmdzXljBZ-109" style="edgeStyle=orthogonalEdgeStyle;rounded=0;orthogonalLoop=1;jettySize=auto;html=1;endArrow=none;endFill=0;" edge="1" parent="1" source="CZsBmXI7kkxCmdzXljBZ-115">
          <mxGeometry relative="1" as="geometry">
            <mxPoint x="984.5" y="1030" as="targetPoint" />
            <mxPoint x="984.5" y="360" as="sourcePoint" />
            <Array as="points">
              <mxPoint x="980" y="1030" />
            </Array>
          </mxGeometry>
        </mxCell>
        <mxCell id="CZsBmXI7kkxCmdzXljBZ-110" style="edgeStyle=orthogonalEdgeStyle;rounded=0;orthogonalLoop=1;jettySize=auto;html=1;strokeColor=default;curved=0;endArrow=none;endFill=0;exitX=1;exitY=0.5;exitDx=0;exitDy=0;" edge="1" parent="1" source="CZsBmXI7kkxCmdzXljBZ-243">
          <mxGeometry relative="1" as="geometry">
            <mxPoint x="3540" y="685" as="targetPoint" />
            <mxPoint x="540" y="684.86" as="sourcePoint" />
            <Array as="points">
              <mxPoint x="3480" y="685" />
              <mxPoint x="3540" y="685" />
            </Array>
          </mxGeometry>
        </mxCell>
        <mxCell id="CZsBmXI7kkxCmdzXljBZ-112" value="" style="edgeStyle=orthogonalEdgeStyle;rounded=0;orthogonalLoop=1;jettySize=auto;html=1;strokeColor=default;curved=0;endArrow=none;endFill=0;" edge="1" parent="1" source="CZsBmXI7kkxCmdzXljBZ-2" target="CZsBmXI7kkxCmdzXljBZ-111">
          <mxGeometry relative="1" as="geometry">
            <mxPoint x="3540" y="470" as="targetPoint" />
            <mxPoint x="330" y="470" as="sourcePoint" />
          </mxGeometry>
        </mxCell>
        <mxCell id="CZsBmXI7kkxCmdzXljBZ-117" style="edgeStyle=orthogonalEdgeStyle;rounded=0;orthogonalLoop=1;jettySize=auto;html=1;endArrow=none;endFill=0;" edge="1" parent="1" source="CZsBmXI7kkxCmdzXljBZ-111" target="CZsBmXI7kkxCmdzXljBZ-113">
          <mxGeometry relative="1" as="geometry" />
        </mxCell>
        <mxCell id="CZsBmXI7kkxCmdzXljBZ-111" value="" style="ellipse;whiteSpace=wrap;html=1;aspect=fixed;fillColor=#3399FF;" vertex="1" parent="1">
          <mxGeometry x="970" y="455" width="30" height="30" as="geometry" />
        </mxCell>
        <mxCell id="CZsBmXI7kkxCmdzXljBZ-114" value="" style="edgeStyle=orthogonalEdgeStyle;rounded=0;orthogonalLoop=1;jettySize=auto;html=1;strokeColor=default;curved=0;endArrow=none;endFill=0;exitX=1;exitY=0.5;exitDx=0;exitDy=0;" edge="1" parent="1" target="CZsBmXI7kkxCmdzXljBZ-113">
          <mxGeometry relative="1" as="geometry">
            <mxPoint x="3540" y="685" as="targetPoint" />
            <mxPoint x="540" y="684.86" as="sourcePoint" />
            <Array as="points" />
          </mxGeometry>
        </mxCell>
        <mxCell id="CZsBmXI7kkxCmdzXljBZ-118" style="edgeStyle=orthogonalEdgeStyle;rounded=0;orthogonalLoop=1;jettySize=auto;html=1;entryX=0.5;entryY=0;entryDx=0;entryDy=0;endArrow=none;endFill=0;" edge="1" parent="1" source="CZsBmXI7kkxCmdzXljBZ-113" target="CZsBmXI7kkxCmdzXljBZ-115">
          <mxGeometry relative="1" as="geometry">
            <mxPoint x="980" y="900" as="targetPoint" />
          </mxGeometry>
        </mxCell>
        <mxCell id="CZsBmXI7kkxCmdzXljBZ-113" value="" style="ellipse;whiteSpace=wrap;html=1;aspect=fixed;strokeColor=default;fillColor=#80FF00;" vertex="1" parent="1">
          <mxGeometry x="970" y="670" width="30" height="30" as="geometry" />
        </mxCell>
        <mxCell id="CZsBmXI7kkxCmdzXljBZ-116" value="" style="edgeStyle=orthogonalEdgeStyle;rounded=0;orthogonalLoop=1;jettySize=auto;html=1;endArrow=none;endFill=0;entryX=0.5;entryY=0;entryDx=0;entryDy=0;" edge="1" parent="1" target="CZsBmXI7kkxCmdzXljBZ-111">
          <mxGeometry relative="1" as="geometry">
            <mxPoint x="980" y="880" as="targetPoint" />
            <mxPoint x="984.5" y="360" as="sourcePoint" />
          </mxGeometry>
        </mxCell>
        <mxCell id="CZsBmXI7kkxCmdzXljBZ-115" value="" style="ellipse;whiteSpace=wrap;html=1;aspect=fixed;fillColor=#05e8f0;" vertex="1" parent="1">
          <mxGeometry x="970" y="1010" width="30" height="30" as="geometry" />
        </mxCell>
        <mxCell id="CZsBmXI7kkxCmdzXljBZ-120" value="" style="edgeStyle=orthogonalEdgeStyle;rounded=0;orthogonalLoop=1;jettySize=auto;html=1;endArrow=none;endFill=0;" edge="1" parent="1" source="CZsBmXI7kkxCmdzXljBZ-121" target="CZsBmXI7kkxCmdzXljBZ-119">
          <mxGeometry relative="1" as="geometry">
            <mxPoint x="1064.5" y="1030" as="targetPoint" />
            <mxPoint x="1064.5" y="360" as="sourcePoint" />
          </mxGeometry>
        </mxCell>
        <mxCell id="CZsBmXI7kkxCmdzXljBZ-119" value="" style="ellipse;whiteSpace=wrap;html=1;aspect=fixed;fillColor=#05e8f0;" vertex="1" parent="1">
          <mxGeometry x="1050" y="1010" width="30" height="30" as="geometry" />
        </mxCell>
        <mxCell id="CZsBmXI7kkxCmdzXljBZ-122" value="" style="edgeStyle=orthogonalEdgeStyle;rounded=0;orthogonalLoop=1;jettySize=auto;html=1;endArrow=none;endFill=0;" edge="1" parent="1" target="CZsBmXI7kkxCmdzXljBZ-121">
          <mxGeometry relative="1" as="geometry">
            <mxPoint x="1065" y="1010" as="targetPoint" />
            <mxPoint x="1064.5" y="360" as="sourcePoint" />
          </mxGeometry>
        </mxCell>
        <mxCell id="CZsBmXI7kkxCmdzXljBZ-134" style="edgeStyle=orthogonalEdgeStyle;rounded=0;orthogonalLoop=1;jettySize=auto;html=1;entryX=0;entryY=0.5;entryDx=0;entryDy=0;endArrow=none;endFill=0;" edge="1" parent="1" source="CZsBmXI7kkxCmdzXljBZ-121" target="CZsBmXI7kkxCmdzXljBZ-123">
          <mxGeometry relative="1" as="geometry" />
        </mxCell>
        <mxCell id="CZsBmXI7kkxCmdzXljBZ-121" value="" style="ellipse;whiteSpace=wrap;html=1;aspect=fixed;fillColor=#3399FF;" vertex="1" parent="1">
          <mxGeometry x="1050" y="455" width="30" height="30" as="geometry" />
        </mxCell>
        <mxCell id="CZsBmXI7kkxCmdzXljBZ-124" value="" style="edgeStyle=orthogonalEdgeStyle;rounded=0;orthogonalLoop=1;jettySize=auto;html=1;endArrow=none;endFill=0;" edge="1" parent="1" target="CZsBmXI7kkxCmdzXljBZ-123">
          <mxGeometry relative="1" as="geometry">
            <mxPoint x="1144.5" y="1030" as="targetPoint" />
            <mxPoint x="1144.5" y="360" as="sourcePoint" />
          </mxGeometry>
        </mxCell>
        <mxCell id="CZsBmXI7kkxCmdzXljBZ-136" style="edgeStyle=orthogonalEdgeStyle;rounded=0;orthogonalLoop=1;jettySize=auto;html=1;endArrow=none;endFill=0;" edge="1" parent="1" source="CZsBmXI7kkxCmdzXljBZ-123" target="CZsBmXI7kkxCmdzXljBZ-127">
          <mxGeometry relative="1" as="geometry" />
        </mxCell>
        <mxCell id="CZsBmXI7kkxCmdzXljBZ-123" value="" style="ellipse;whiteSpace=wrap;html=1;aspect=fixed;fillColor=#3399FF;" vertex="1" parent="1">
          <mxGeometry x="1130" y="455" width="30" height="30" as="geometry" />
        </mxCell>
        <mxCell id="CZsBmXI7kkxCmdzXljBZ-126" value="" style="edgeStyle=orthogonalEdgeStyle;rounded=0;orthogonalLoop=1;jettySize=auto;html=1;endArrow=none;endFill=0;" edge="1" parent="1" source="CZsBmXI7kkxCmdzXljBZ-123" target="CZsBmXI7kkxCmdzXljBZ-125">
          <mxGeometry relative="1" as="geometry">
            <mxPoint x="1144.5" y="1030" as="targetPoint" />
            <mxPoint x="1145" y="485" as="sourcePoint" />
          </mxGeometry>
        </mxCell>
        <mxCell id="CZsBmXI7kkxCmdzXljBZ-125" value="" style="ellipse;whiteSpace=wrap;html=1;aspect=fixed;fillColor=#05e8f0;" vertex="1" parent="1">
          <mxGeometry x="1130" y="1010" width="30" height="30" as="geometry" />
        </mxCell>
        <mxCell id="CZsBmXI7kkxCmdzXljBZ-128" value="" style="edgeStyle=orthogonalEdgeStyle;rounded=0;orthogonalLoop=1;jettySize=auto;html=1;strokeColor=default;curved=0;endArrow=none;endFill=0;" edge="1" parent="1" source="CZsBmXI7kkxCmdzXljBZ-111">
          <mxGeometry relative="1" as="geometry">
            <mxPoint x="1050" y="470" as="targetPoint" />
            <mxPoint x="1000" y="470" as="sourcePoint" />
          </mxGeometry>
        </mxCell>
        <mxCell id="CZsBmXI7kkxCmdzXljBZ-138" style="edgeStyle=orthogonalEdgeStyle;rounded=0;orthogonalLoop=1;jettySize=auto;html=1;entryX=0.5;entryY=0;entryDx=0;entryDy=0;endArrow=none;endFill=0;" edge="1" parent="1" source="CZsBmXI7kkxCmdzXljBZ-127" target="CZsBmXI7kkxCmdzXljBZ-132">
          <mxGeometry relative="1" as="geometry" />
        </mxCell>
        <mxCell id="CZsBmXI7kkxCmdzXljBZ-127" value="" style="ellipse;whiteSpace=wrap;html=1;aspect=fixed;fillColor=#3399FF;" vertex="1" parent="1">
          <mxGeometry x="1205" y="455" width="30" height="30" as="geometry" />
        </mxCell>
        <mxCell id="CZsBmXI7kkxCmdzXljBZ-132" value="" style="ellipse;whiteSpace=wrap;html=1;aspect=fixed;fillColor=#05e8f0;" vertex="1" parent="1">
          <mxGeometry x="1205" y="1010" width="30" height="30" as="geometry" />
        </mxCell>
        <mxCell id="CZsBmXI7kkxCmdzXljBZ-140" value="" style="edgeStyle=orthogonalEdgeStyle;rounded=0;orthogonalLoop=1;jettySize=auto;html=1;endArrow=none;endFill=0;" edge="1" parent="1" source="CZsBmXI7kkxCmdzXljBZ-148" target="CZsBmXI7kkxCmdzXljBZ-139">
          <mxGeometry relative="1" as="geometry">
            <mxPoint x="1614.5" y="1030" as="targetPoint" />
            <mxPoint x="1614.5" y="360" as="sourcePoint" />
          </mxGeometry>
        </mxCell>
        <mxCell id="CZsBmXI7kkxCmdzXljBZ-179" style="edgeStyle=orthogonalEdgeStyle;rounded=0;orthogonalLoop=1;jettySize=auto;html=1;entryX=0;entryY=0.5;entryDx=0;entryDy=0;endArrow=none;endFill=0;" edge="1" parent="1" source="CZsBmXI7kkxCmdzXljBZ-139" target="CZsBmXI7kkxCmdzXljBZ-159">
          <mxGeometry relative="1" as="geometry" />
        </mxCell>
        <mxCell id="CZsBmXI7kkxCmdzXljBZ-139" value="" style="ellipse;whiteSpace=wrap;html=1;aspect=fixed;fillColor=#80FF00;" vertex="1" parent="1">
          <mxGeometry x="1600" y="670" width="30" height="30" as="geometry" />
        </mxCell>
        <mxCell id="CZsBmXI7kkxCmdzXljBZ-143" value="" style="edgeStyle=orthogonalEdgeStyle;rounded=0;orthogonalLoop=1;jettySize=auto;html=1;endArrow=none;endFill=0;" edge="1" parent="1" source="CZsBmXI7kkxCmdzXljBZ-146" target="CZsBmXI7kkxCmdzXljBZ-141">
          <mxGeometry relative="1" as="geometry">
            <mxPoint x="1614.5" y="1030" as="targetPoint" />
            <mxPoint x="1615" y="700" as="sourcePoint" />
          </mxGeometry>
        </mxCell>
        <mxCell id="CZsBmXI7kkxCmdzXljBZ-141" value="" style="ellipse;whiteSpace=wrap;html=1;aspect=fixed;fillColor=#05e8f0;" vertex="1" parent="1">
          <mxGeometry x="1600" y="1010" width="30" height="30" as="geometry" />
        </mxCell>
        <mxCell id="CZsBmXI7kkxCmdzXljBZ-145" value="" style="edgeStyle=orthogonalEdgeStyle;rounded=0;orthogonalLoop=1;jettySize=auto;html=1;endArrow=none;endFill=0;" edge="1" parent="1" target="CZsBmXI7kkxCmdzXljBZ-144">
          <mxGeometry relative="1" as="geometry">
            <mxPoint x="1615" y="670" as="targetPoint" />
            <mxPoint x="1614.5" y="360" as="sourcePoint" />
          </mxGeometry>
        </mxCell>
        <mxCell id="CZsBmXI7kkxCmdzXljBZ-144" value="" style="ellipse;whiteSpace=wrap;html=1;aspect=fixed;strokeColor=default;fillColor=#3399FF;" vertex="1" parent="1">
          <mxGeometry x="1600" y="455" width="30" height="30" as="geometry" />
        </mxCell>
        <mxCell id="CZsBmXI7kkxCmdzXljBZ-147" value="" style="edgeStyle=orthogonalEdgeStyle;rounded=0;orthogonalLoop=1;jettySize=auto;html=1;endArrow=none;endFill=0;" edge="1" parent="1" source="CZsBmXI7kkxCmdzXljBZ-139" target="CZsBmXI7kkxCmdzXljBZ-146">
          <mxGeometry relative="1" as="geometry">
            <mxPoint x="1615" y="1010" as="targetPoint" />
            <mxPoint x="1615" y="700" as="sourcePoint" />
          </mxGeometry>
        </mxCell>
        <mxCell id="CZsBmXI7kkxCmdzXljBZ-204" style="edgeStyle=orthogonalEdgeStyle;rounded=0;orthogonalLoop=1;jettySize=auto;html=1;entryX=0;entryY=0.5;entryDx=0;entryDy=0;endArrow=none;endFill=0;" edge="1" parent="1" source="CZsBmXI7kkxCmdzXljBZ-146" target="CZsBmXI7kkxCmdzXljBZ-161">
          <mxGeometry relative="1" as="geometry" />
        </mxCell>
        <mxCell id="CZsBmXI7kkxCmdzXljBZ-146" value="" style="ellipse;whiteSpace=wrap;html=1;aspect=fixed;fillColor=#620399;" vertex="1" parent="1">
          <mxGeometry x="1600" y="810" width="30" height="30" as="geometry" />
        </mxCell>
        <mxCell id="CZsBmXI7kkxCmdzXljBZ-149" value="" style="edgeStyle=orthogonalEdgeStyle;rounded=0;orthogonalLoop=1;jettySize=auto;html=1;endArrow=none;endFill=0;" edge="1" parent="1" source="CZsBmXI7kkxCmdzXljBZ-144" target="CZsBmXI7kkxCmdzXljBZ-148">
          <mxGeometry relative="1" as="geometry">
            <mxPoint x="1615" y="670" as="targetPoint" />
            <mxPoint x="1615" y="485" as="sourcePoint" />
          </mxGeometry>
        </mxCell>
        <mxCell id="CZsBmXI7kkxCmdzXljBZ-148" value="" style="ellipse;whiteSpace=wrap;html=1;aspect=fixed;fillColor=#FF8000;" vertex="1" parent="1">
          <mxGeometry x="1600" y="600" width="30" height="30" as="geometry" />
        </mxCell>
        <mxCell id="CZsBmXI7kkxCmdzXljBZ-154" value="" style="edgeStyle=orthogonalEdgeStyle;rounded=0;orthogonalLoop=1;jettySize=auto;html=1;endArrow=none;endFill=0;" edge="1" parent="1" target="CZsBmXI7kkxCmdzXljBZ-150">
          <mxGeometry relative="1" as="geometry">
            <mxPoint x="1694.5" y="1030" as="targetPoint" />
            <mxPoint x="1694.5" y="360" as="sourcePoint" />
          </mxGeometry>
        </mxCell>
        <mxCell id="CZsBmXI7kkxCmdzXljBZ-150" value="" style="ellipse;whiteSpace=wrap;html=1;aspect=fixed;fillColor=#3399FF;" vertex="1" parent="1">
          <mxGeometry x="1680" y="455" width="30" height="30" as="geometry" />
        </mxCell>
        <mxCell id="CZsBmXI7kkxCmdzXljBZ-160" value="" style="edgeStyle=orthogonalEdgeStyle;rounded=0;orthogonalLoop=1;jettySize=auto;html=1;endArrow=none;endFill=0;" edge="1" parent="1" source="CZsBmXI7kkxCmdzXljBZ-150" target="CZsBmXI7kkxCmdzXljBZ-159">
          <mxGeometry relative="1" as="geometry">
            <mxPoint x="1694.5" y="1030" as="targetPoint" />
            <mxPoint x="1695" y="485" as="sourcePoint" />
          </mxGeometry>
        </mxCell>
        <mxCell id="CZsBmXI7kkxCmdzXljBZ-181" style="edgeStyle=orthogonalEdgeStyle;rounded=0;orthogonalLoop=1;jettySize=auto;html=1;entryX=0;entryY=0.5;entryDx=0;entryDy=0;endArrow=none;endFill=0;" edge="1" parent="1" source="CZsBmXI7kkxCmdzXljBZ-159" target="CZsBmXI7kkxCmdzXljBZ-168">
          <mxGeometry relative="1" as="geometry" />
        </mxCell>
        <mxCell id="CZsBmXI7kkxCmdzXljBZ-159" value="" style="ellipse;whiteSpace=wrap;html=1;aspect=fixed;fillColor=#80FF00;" vertex="1" parent="1">
          <mxGeometry x="1680" y="670" width="30" height="30" as="geometry" />
        </mxCell>
        <mxCell id="CZsBmXI7kkxCmdzXljBZ-162" value="" style="edgeStyle=orthogonalEdgeStyle;rounded=0;orthogonalLoop=1;jettySize=auto;html=1;endArrow=none;endFill=0;" edge="1" parent="1" source="CZsBmXI7kkxCmdzXljBZ-159" target="CZsBmXI7kkxCmdzXljBZ-161">
          <mxGeometry relative="1" as="geometry">
            <mxPoint x="1694.5" y="1030" as="targetPoint" />
            <mxPoint x="1695" y="700" as="sourcePoint" />
          </mxGeometry>
        </mxCell>
        <mxCell id="CZsBmXI7kkxCmdzXljBZ-205" style="edgeStyle=orthogonalEdgeStyle;rounded=0;orthogonalLoop=1;jettySize=auto;html=1;entryX=0;entryY=0.5;entryDx=0;entryDy=0;endArrow=none;endFill=0;" edge="1" parent="1" source="CZsBmXI7kkxCmdzXljBZ-161" target="CZsBmXI7kkxCmdzXljBZ-195">
          <mxGeometry relative="1" as="geometry" />
        </mxCell>
        <mxCell id="CZsBmXI7kkxCmdzXljBZ-161" value="" style="ellipse;whiteSpace=wrap;html=1;aspect=fixed;fillColor=#620399;" vertex="1" parent="1">
          <mxGeometry x="1680" y="810" width="30" height="30" as="geometry" />
        </mxCell>
        <mxCell id="CZsBmXI7kkxCmdzXljBZ-165" value="" style="edgeStyle=orthogonalEdgeStyle;rounded=0;orthogonalLoop=1;jettySize=auto;html=1;endArrow=none;endFill=0;" edge="1" parent="1" source="CZsBmXI7kkxCmdzXljBZ-161" target="CZsBmXI7kkxCmdzXljBZ-163">
          <mxGeometry relative="1" as="geometry">
            <mxPoint x="1694.5" y="1030" as="targetPoint" />
            <mxPoint x="1695" y="840" as="sourcePoint" />
          </mxGeometry>
        </mxCell>
        <mxCell id="CZsBmXI7kkxCmdzXljBZ-163" value="" style="ellipse;whiteSpace=wrap;html=1;aspect=fixed;fillColor=#05e8f0;" vertex="1" parent="1">
          <mxGeometry x="1680" y="1010" width="30" height="30" as="geometry" />
        </mxCell>
        <mxCell id="CZsBmXI7kkxCmdzXljBZ-166" value="" style="ellipse;whiteSpace=wrap;html=1;aspect=fixed;fillColor=#FF8000;" vertex="1" parent="1">
          <mxGeometry x="1680" y="600" width="30" height="30" as="geometry" />
        </mxCell>
        <mxCell id="CZsBmXI7kkxCmdzXljBZ-177" value="" style="edgeStyle=orthogonalEdgeStyle;rounded=0;orthogonalLoop=1;jettySize=auto;html=1;strokeColor=default;curved=0;endArrow=none;endFill=0;exitX=1;exitY=0.5;exitDx=0;exitDy=0;entryX=0;entryY=0.5;entryDx=0;entryDy=0;" edge="1" parent="1" source="CZsBmXI7kkxCmdzXljBZ-113" target="CZsBmXI7kkxCmdzXljBZ-139">
          <mxGeometry relative="1" as="geometry">
            <mxPoint x="3540" y="685" as="targetPoint" />
            <mxPoint x="1000" y="685" as="sourcePoint" />
            <Array as="points" />
          </mxGeometry>
        </mxCell>
        <mxCell id="CZsBmXI7kkxCmdzXljBZ-184" style="edgeStyle=orthogonalEdgeStyle;rounded=0;orthogonalLoop=1;jettySize=auto;html=1;entryX=0.5;entryY=0;entryDx=0;entryDy=0;endArrow=none;endFill=0;" edge="1" parent="1" source="CZsBmXI7kkxCmdzXljBZ-168" target="CZsBmXI7kkxCmdzXljBZ-182">
          <mxGeometry relative="1" as="geometry" />
        </mxCell>
        <mxCell id="CZsBmXI7kkxCmdzXljBZ-168" value="" style="ellipse;whiteSpace=wrap;html=1;aspect=fixed;strokeColor=default;fillColor=#80FF00;" vertex="1" parent="1">
          <mxGeometry x="1755" y="670" width="30" height="30" as="geometry" />
        </mxCell>
        <mxCell id="CZsBmXI7kkxCmdzXljBZ-183" value="" style="edgeStyle=orthogonalEdgeStyle;rounded=0;orthogonalLoop=1;jettySize=auto;html=1;endArrow=none;endFill=0;entryX=0.5;entryY=0;entryDx=0;entryDy=0;" edge="1" parent="1" target="CZsBmXI7kkxCmdzXljBZ-168">
          <mxGeometry relative="1" as="geometry">
            <mxPoint x="1769.5" y="1030" as="targetPoint" />
            <mxPoint x="1769.5" y="360" as="sourcePoint" />
          </mxGeometry>
        </mxCell>
        <mxCell id="CZsBmXI7kkxCmdzXljBZ-194" style="edgeStyle=orthogonalEdgeStyle;rounded=0;orthogonalLoop=1;jettySize=auto;html=1;endArrow=none;endFill=0;" edge="1" parent="1" source="CZsBmXI7kkxCmdzXljBZ-182" target="CZsBmXI7kkxCmdzXljBZ-190">
          <mxGeometry relative="1" as="geometry" />
        </mxCell>
        <mxCell id="CZsBmXI7kkxCmdzXljBZ-182" value="" style="ellipse;whiteSpace=wrap;html=1;aspect=fixed;fillColor=#990303;" vertex="1" parent="1">
          <mxGeometry x="1755" y="725" width="30" height="30" as="geometry" />
        </mxCell>
        <mxCell id="CZsBmXI7kkxCmdzXljBZ-186" value="" style="edgeStyle=orthogonalEdgeStyle;rounded=0;orthogonalLoop=1;jettySize=auto;html=1;endArrow=none;endFill=0;" edge="1" parent="1" target="CZsBmXI7kkxCmdzXljBZ-185">
          <mxGeometry relative="1" as="geometry">
            <mxPoint x="1839.5" y="1030" as="targetPoint" />
            <mxPoint x="1839.5" y="360" as="sourcePoint" />
          </mxGeometry>
        </mxCell>
        <mxCell id="CZsBmXI7kkxCmdzXljBZ-189" style="edgeStyle=orthogonalEdgeStyle;rounded=0;orthogonalLoop=1;jettySize=auto;html=1;entryX=0;entryY=0.5;entryDx=0;entryDy=0;endArrow=none;endFill=0;" edge="1" parent="1" source="CZsBmXI7kkxCmdzXljBZ-185" target="CZsBmXI7kkxCmdzXljBZ-187">
          <mxGeometry relative="1" as="geometry" />
        </mxCell>
        <mxCell id="CZsBmXI7kkxCmdzXljBZ-185" value="" style="ellipse;whiteSpace=wrap;html=1;aspect=fixed;fillColor=#80FF00;" vertex="1" parent="1">
          <mxGeometry x="1825" y="670" width="30" height="30" as="geometry" />
        </mxCell>
        <mxCell id="CZsBmXI7kkxCmdzXljBZ-188" value="" style="edgeStyle=orthogonalEdgeStyle;rounded=0;orthogonalLoop=1;jettySize=auto;html=1;strokeColor=default;curved=0;endArrow=none;endFill=0;exitX=1;exitY=0.5;exitDx=0;exitDy=0;entryX=0;entryY=0.5;entryDx=0;entryDy=0;" edge="1" parent="1" source="CZsBmXI7kkxCmdzXljBZ-168" target="CZsBmXI7kkxCmdzXljBZ-185">
          <mxGeometry relative="1" as="geometry">
            <mxPoint x="3540" y="685" as="targetPoint" />
            <mxPoint x="1785" y="685" as="sourcePoint" />
            <Array as="points" />
          </mxGeometry>
        </mxCell>
        <mxCell id="CZsBmXI7kkxCmdzXljBZ-187" value="" style="ellipse;whiteSpace=wrap;html=1;aspect=fixed;fillColor=#80FF00;" vertex="1" parent="1">
          <mxGeometry x="1915" y="670" width="30" height="30" as="geometry" />
        </mxCell>
        <mxCell id="CZsBmXI7kkxCmdzXljBZ-191" value="" style="edgeStyle=orthogonalEdgeStyle;rounded=0;orthogonalLoop=1;jettySize=auto;html=1;strokeColor=default;curved=0;endArrow=none;endFill=0;exitX=1;exitY=0.5;exitDx=0;exitDy=0;entryX=0;entryY=0.5;entryDx=0;entryDy=0;" edge="1" parent="1" source="CZsBmXI7kkxCmdzXljBZ-10" target="CZsBmXI7kkxCmdzXljBZ-182">
          <mxGeometry relative="1" as="geometry">
            <mxPoint x="1750" y="740" as="targetPoint" />
            <mxPoint x="700" y="740" as="sourcePoint" />
          </mxGeometry>
        </mxCell>
        <mxCell id="CZsBmXI7kkxCmdzXljBZ-190" value="" style="ellipse;whiteSpace=wrap;html=1;aspect=fixed;fillColor=#990303;" vertex="1" parent="1">
          <mxGeometry x="1825" y="725" width="30" height="30" as="geometry" />
        </mxCell>
        <mxCell id="CZsBmXI7kkxCmdzXljBZ-193" value="" style="edgeStyle=orthogonalEdgeStyle;rounded=0;orthogonalLoop=1;jettySize=auto;html=1;strokeColor=default;curved=0;endArrow=none;endFill=0;exitX=1;exitY=0.5;exitDx=0;exitDy=0;" edge="1" parent="1" source="CZsBmXI7kkxCmdzXljBZ-190" target="CZsBmXI7kkxCmdzXljBZ-192">
          <mxGeometry relative="1" as="geometry">
            <mxPoint x="3540" y="740" as="targetPoint" />
            <mxPoint x="1855" y="740" as="sourcePoint" />
          </mxGeometry>
        </mxCell>
        <mxCell id="CZsBmXI7kkxCmdzXljBZ-192" value="" style="ellipse;whiteSpace=wrap;html=1;aspect=fixed;fillColor=#990303;" vertex="1" parent="1">
          <mxGeometry x="1915" y="725" width="30" height="30" as="geometry" />
        </mxCell>
        <mxCell id="CZsBmXI7kkxCmdzXljBZ-196" value="" style="edgeStyle=orthogonalEdgeStyle;rounded=0;orthogonalLoop=1;jettySize=auto;html=1;endArrow=none;endFill=0;" edge="1" parent="1" source="CZsBmXI7kkxCmdzXljBZ-198" target="CZsBmXI7kkxCmdzXljBZ-195">
          <mxGeometry relative="1" as="geometry">
            <mxPoint x="2389.29" y="1030" as="targetPoint" />
            <mxPoint x="2389.29" y="360" as="sourcePoint" />
          </mxGeometry>
        </mxCell>
        <mxCell id="CZsBmXI7kkxCmdzXljBZ-203" style="edgeStyle=orthogonalEdgeStyle;rounded=0;orthogonalLoop=1;jettySize=auto;html=1;endArrow=none;endFill=0;" edge="1" parent="1" source="CZsBmXI7kkxCmdzXljBZ-195" target="CZsBmXI7kkxCmdzXljBZ-201">
          <mxGeometry relative="1" as="geometry" />
        </mxCell>
        <mxCell id="CZsBmXI7kkxCmdzXljBZ-195" value="" style="ellipse;whiteSpace=wrap;html=1;aspect=fixed;fillColor=#620399;" vertex="1" parent="1">
          <mxGeometry x="2375" y="810" width="30" height="30" as="geometry" />
        </mxCell>
        <mxCell id="CZsBmXI7kkxCmdzXljBZ-199" value="" style="edgeStyle=orthogonalEdgeStyle;rounded=0;orthogonalLoop=1;jettySize=auto;html=1;endArrow=none;endFill=0;" edge="1" parent="1" target="CZsBmXI7kkxCmdzXljBZ-198">
          <mxGeometry relative="1" as="geometry">
            <mxPoint x="2390" y="810" as="targetPoint" />
            <mxPoint x="2389.29" y="360" as="sourcePoint" />
          </mxGeometry>
        </mxCell>
        <mxCell id="CZsBmXI7kkxCmdzXljBZ-198" value="" style="ellipse;whiteSpace=wrap;html=1;aspect=fixed;fillColor=#FF8000;" vertex="1" parent="1">
          <mxGeometry x="2375" y="600" width="30" height="30" as="geometry" />
        </mxCell>
        <mxCell id="CZsBmXI7kkxCmdzXljBZ-200" value="" style="edgeStyle=orthogonalEdgeStyle;rounded=0;orthogonalLoop=1;jettySize=auto;html=1;endArrow=none;endFill=0;" edge="1" parent="1" target="CZsBmXI7kkxCmdzXljBZ-197">
          <mxGeometry relative="1" as="geometry">
            <mxPoint x="2478.5699999999997" y="1030" as="targetPoint" />
            <mxPoint x="2478.5699999999997" y="360" as="sourcePoint" />
          </mxGeometry>
        </mxCell>
        <mxCell id="CZsBmXI7kkxCmdzXljBZ-197" value="" style="ellipse;whiteSpace=wrap;html=1;aspect=fixed;fillColor=#FF8000;" vertex="1" parent="1">
          <mxGeometry x="2465" y="600" width="30" height="30" as="geometry" />
        </mxCell>
        <mxCell id="CZsBmXI7kkxCmdzXljBZ-202" value="" style="edgeStyle=orthogonalEdgeStyle;rounded=0;orthogonalLoop=1;jettySize=auto;html=1;strokeColor=default;curved=0;endArrow=none;endFill=0;exitX=1;exitY=0.5;exitDx=0;exitDy=0;entryX=0;entryY=0.5;entryDx=0;entryDy=0;" edge="1" parent="1" source="CZsBmXI7kkxCmdzXljBZ-12" target="CZsBmXI7kkxCmdzXljBZ-146">
          <mxGeometry relative="1" as="geometry">
            <mxPoint x="2360" y="825" as="targetPoint" />
            <mxPoint x="300" y="825" as="sourcePoint" />
            <Array as="points" />
          </mxGeometry>
        </mxCell>
        <mxCell id="CZsBmXI7kkxCmdzXljBZ-201" value="" style="ellipse;whiteSpace=wrap;html=1;aspect=fixed;fillColor=#620399;" vertex="1" parent="1">
          <mxGeometry x="2465" y="810" width="30" height="30" as="geometry" />
        </mxCell>
        <mxCell id="CZsBmXI7kkxCmdzXljBZ-207" value="" style="edgeStyle=orthogonalEdgeStyle;rounded=0;orthogonalLoop=1;jettySize=auto;html=1;endArrow=none;endFill=0;" edge="1" parent="1" target="CZsBmXI7kkxCmdzXljBZ-206">
          <mxGeometry relative="1" as="geometry">
            <mxPoint x="2558.5699999999997" y="1030" as="targetPoint" />
            <mxPoint x="2558.5699999999997" y="360" as="sourcePoint" />
          </mxGeometry>
        </mxCell>
        <mxCell id="CZsBmXI7kkxCmdzXljBZ-208" value="" style="edgeStyle=orthogonalEdgeStyle;rounded=0;orthogonalLoop=1;jettySize=auto;html=1;strokeColor=default;curved=0;endArrow=none;endFill=0;exitX=1;exitY=0.5;exitDx=0;exitDy=0;" edge="1" parent="1" source="CZsBmXI7kkxCmdzXljBZ-192" target="CZsBmXI7kkxCmdzXljBZ-206">
          <mxGeometry relative="1" as="geometry">
            <mxPoint x="3540" y="740" as="targetPoint" />
            <mxPoint x="1945" y="740" as="sourcePoint" />
          </mxGeometry>
        </mxCell>
        <mxCell id="CZsBmXI7kkxCmdzXljBZ-206" value="" style="ellipse;whiteSpace=wrap;html=1;aspect=fixed;fillColor=#990303;" vertex="1" parent="1">
          <mxGeometry x="2545" y="725" width="30" height="30" as="geometry" />
        </mxCell>
        <mxCell id="CZsBmXI7kkxCmdzXljBZ-210" value="" style="edgeStyle=orthogonalEdgeStyle;rounded=0;orthogonalLoop=1;jettySize=auto;html=1;endArrow=none;endFill=0;" edge="1" parent="1" target="CZsBmXI7kkxCmdzXljBZ-209">
          <mxGeometry relative="1" as="geometry">
            <mxPoint x="2638.57" y="1030" as="targetPoint" />
            <mxPoint x="2638.57" y="360" as="sourcePoint" />
          </mxGeometry>
        </mxCell>
        <mxCell id="CZsBmXI7kkxCmdzXljBZ-213" value="" style="edgeStyle=orthogonalEdgeStyle;rounded=0;orthogonalLoop=1;jettySize=auto;html=1;endArrow=none;endFill=0;" edge="1" parent="1" source="CZsBmXI7kkxCmdzXljBZ-209" target="CZsBmXI7kkxCmdzXljBZ-211">
          <mxGeometry relative="1" as="geometry" />
        </mxCell>
        <mxCell id="CZsBmXI7kkxCmdzXljBZ-212" value="" style="edgeStyle=orthogonalEdgeStyle;rounded=0;orthogonalLoop=1;jettySize=auto;html=1;strokeColor=default;curved=0;endArrow=none;endFill=0;exitX=1;exitY=0.5;exitDx=0;exitDy=0;" edge="1" parent="1" source="CZsBmXI7kkxCmdzXljBZ-209">
          <mxGeometry relative="1" as="geometry">
            <mxPoint x="2630" y="740" as="targetPoint" />
            <mxPoint x="2575" y="740" as="sourcePoint" />
          </mxGeometry>
        </mxCell>
        <mxCell id="CZsBmXI7kkxCmdzXljBZ-211" value="" style="ellipse;whiteSpace=wrap;html=1;aspect=fixed;fillColor=#990303;" vertex="1" parent="1">
          <mxGeometry x="2705" y="725" width="30" height="30" as="geometry" />
        </mxCell>
        <mxCell id="CZsBmXI7kkxCmdzXljBZ-215" value="" style="edgeStyle=orthogonalEdgeStyle;rounded=0;orthogonalLoop=1;jettySize=auto;html=1;strokeColor=default;curved=0;endArrow=none;endFill=0;exitX=1;exitY=0.5;exitDx=0;exitDy=0;" edge="1" parent="1" source="CZsBmXI7kkxCmdzXljBZ-206" target="CZsBmXI7kkxCmdzXljBZ-209">
          <mxGeometry relative="1" as="geometry">
            <mxPoint x="2630" y="740" as="targetPoint" />
            <mxPoint x="2575" y="740" as="sourcePoint" />
          </mxGeometry>
        </mxCell>
        <mxCell id="CZsBmXI7kkxCmdzXljBZ-209" value="" style="ellipse;whiteSpace=wrap;html=1;aspect=fixed;fillColor=#990303;" vertex="1" parent="1">
          <mxGeometry x="2625" y="725" width="30" height="30" as="geometry" />
        </mxCell>
        <mxCell id="CZsBmXI7kkxCmdzXljBZ-217" value="" style="edgeStyle=orthogonalEdgeStyle;rounded=0;orthogonalLoop=1;jettySize=auto;html=1;strokeColor=default;curved=0;endArrow=none;endFill=0;exitX=1;exitY=0.5;exitDx=0;exitDy=0;" edge="1" parent="1" source="CZsBmXI7kkxCmdzXljBZ-14" target="CZsBmXI7kkxCmdzXljBZ-216">
          <mxGeometry relative="1" as="geometry">
            <mxPoint x="3540" y="928" as="targetPoint" />
            <mxPoint x="300" y="928" as="sourcePoint" />
            <Array as="points" />
          </mxGeometry>
        </mxCell>
        <mxCell id="CZsBmXI7kkxCmdzXljBZ-216" value="" style="ellipse;whiteSpace=wrap;html=1;aspect=fixed;fillColor=#F0C905;" vertex="1" parent="1">
          <mxGeometry x="3185" y="912.75" width="30" height="30" as="geometry" />
        </mxCell>
        <mxCell id="CZsBmXI7kkxCmdzXljBZ-219" value="" style="edgeStyle=orthogonalEdgeStyle;rounded=0;orthogonalLoop=1;jettySize=auto;html=1;endArrow=none;endFill=0;" edge="1" parent="1" source="CZsBmXI7kkxCmdzXljBZ-239" target="CZsBmXI7kkxCmdzXljBZ-218">
          <mxGeometry relative="1" as="geometry">
            <mxPoint x="3288.57" y="1030" as="targetPoint" />
            <mxPoint x="3288.57" y="360" as="sourcePoint" />
          </mxGeometry>
        </mxCell>
        <mxCell id="CZsBmXI7kkxCmdzXljBZ-226" style="edgeStyle=orthogonalEdgeStyle;rounded=0;orthogonalLoop=1;jettySize=auto;html=1;entryX=0;entryY=0.5;entryDx=0;entryDy=0;endArrow=none;endFill=0;" edge="1" parent="1" source="CZsBmXI7kkxCmdzXljBZ-218" target="CZsBmXI7kkxCmdzXljBZ-220">
          <mxGeometry relative="1" as="geometry" />
        </mxCell>
        <mxCell id="CZsBmXI7kkxCmdzXljBZ-218" value="" style="ellipse;whiteSpace=wrap;html=1;aspect=fixed;fillColor=#F0C905;" vertex="1" parent="1">
          <mxGeometry x="3275" y="912.75" width="30" height="30" as="geometry" />
        </mxCell>
        <mxCell id="CZsBmXI7kkxCmdzXljBZ-221" value="" style="edgeStyle=orthogonalEdgeStyle;rounded=0;orthogonalLoop=1;jettySize=auto;html=1;endArrow=none;endFill=0;" edge="1" parent="1" source="CZsBmXI7kkxCmdzXljBZ-241" target="CZsBmXI7kkxCmdzXljBZ-220">
          <mxGeometry relative="1" as="geometry">
            <mxPoint x="3368.57" y="1030" as="targetPoint" />
            <mxPoint x="3368.57" y="360" as="sourcePoint" />
          </mxGeometry>
        </mxCell>
        <mxCell id="CZsBmXI7kkxCmdzXljBZ-220" value="" style="ellipse;whiteSpace=wrap;html=1;aspect=fixed;fillColor=#F0C905;" vertex="1" parent="1">
          <mxGeometry x="3355" y="912.75" width="30" height="30" as="geometry" />
        </mxCell>
        <mxCell id="CZsBmXI7kkxCmdzXljBZ-223" value="" style="edgeStyle=orthogonalEdgeStyle;rounded=0;orthogonalLoop=1;jettySize=auto;html=1;strokeColor=default;curved=0;endArrow=none;endFill=0;exitX=1;exitY=0.5;exitDx=0;exitDy=0;entryX=0;entryY=0.5;entryDx=0;entryDy=0;" edge="1" parent="1" source="CZsBmXI7kkxCmdzXljBZ-216" target="CZsBmXI7kkxCmdzXljBZ-218">
          <mxGeometry relative="1" as="geometry">
            <mxPoint x="3270" y="928" as="targetPoint" />
            <mxPoint x="3215" y="928" as="sourcePoint" />
            <Array as="points" />
          </mxGeometry>
        </mxCell>
        <mxCell id="CZsBmXI7kkxCmdzXljBZ-222" value="" style="ellipse;whiteSpace=wrap;html=1;aspect=fixed;fillColor=#F0C905;" vertex="1" parent="1">
          <mxGeometry x="3435" y="912.75" width="30" height="30" as="geometry" />
        </mxCell>
        <mxCell id="CZsBmXI7kkxCmdzXljBZ-225" value="" style="edgeStyle=orthogonalEdgeStyle;rounded=0;orthogonalLoop=1;jettySize=auto;html=1;endArrow=none;endFill=0;" edge="1" parent="1" source="CZsBmXI7kkxCmdzXljBZ-61" target="CZsBmXI7kkxCmdzXljBZ-224">
          <mxGeometry relative="1" as="geometry">
            <mxPoint x="3540" y="1030" as="targetPoint" />
            <mxPoint x="3540" y="360" as="sourcePoint" />
          </mxGeometry>
        </mxCell>
        <mxCell id="CZsBmXI7kkxCmdzXljBZ-224" value="" style="ellipse;whiteSpace=wrap;html=1;aspect=fixed;fillColor=#F0C905;" vertex="1" parent="1">
          <mxGeometry x="3525" y="912.75" width="30" height="30" as="geometry" />
        </mxCell>
        <mxCell id="CZsBmXI7kkxCmdzXljBZ-227" style="edgeStyle=orthogonalEdgeStyle;rounded=0;orthogonalLoop=1;jettySize=auto;html=1;entryX=0;entryY=0.5;entryDx=0;entryDy=0;endArrow=none;endFill=0;" edge="1" parent="1" source="CZsBmXI7kkxCmdzXljBZ-220" target="CZsBmXI7kkxCmdzXljBZ-222">
          <mxGeometry relative="1" as="geometry" />
        </mxCell>
        <mxCell id="CZsBmXI7kkxCmdzXljBZ-230" value="" style="edgeStyle=orthogonalEdgeStyle;rounded=0;orthogonalLoop=1;jettySize=auto;html=1;endArrow=none;endFill=0;" edge="1" parent="1" target="CZsBmXI7kkxCmdzXljBZ-228">
          <mxGeometry relative="1" as="geometry">
            <mxPoint x="3199.29" y="1030" as="targetPoint" />
            <mxPoint x="3199.29" y="360" as="sourcePoint" />
          </mxGeometry>
        </mxCell>
        <mxCell id="CZsBmXI7kkxCmdzXljBZ-228" value="" style="ellipse;whiteSpace=wrap;html=1;aspect=fixed;fillColor=#FF8000;" vertex="1" parent="1">
          <mxGeometry x="3185" y="600" width="30" height="30" as="geometry" />
        </mxCell>
        <mxCell id="CZsBmXI7kkxCmdzXljBZ-232" value="" style="edgeStyle=orthogonalEdgeStyle;rounded=0;orthogonalLoop=1;jettySize=auto;html=1;strokeColor=default;curved=0;endArrow=none;endFill=0;exitX=1;exitY=0.5;exitDx=0;exitDy=0;" edge="1" parent="1" source="CZsBmXI7kkxCmdzXljBZ-187" target="CZsBmXI7kkxCmdzXljBZ-231">
          <mxGeometry relative="1" as="geometry">
            <mxPoint x="3540" y="685" as="targetPoint" />
            <mxPoint x="1945" y="685" as="sourcePoint" />
            <Array as="points" />
          </mxGeometry>
        </mxCell>
        <mxCell id="CZsBmXI7kkxCmdzXljBZ-231" value="" style="ellipse;whiteSpace=wrap;html=1;aspect=fixed;fillColor=#80FF00;" vertex="1" parent="1">
          <mxGeometry x="3185" y="670" width="30" height="30" as="geometry" />
        </mxCell>
        <mxCell id="CZsBmXI7kkxCmdzXljBZ-234" value="" style="edgeStyle=orthogonalEdgeStyle;rounded=0;orthogonalLoop=1;jettySize=auto;html=1;strokeColor=default;curved=0;endArrow=none;endFill=0;exitX=1;exitY=0.5;exitDx=0;exitDy=0;" edge="1" parent="1" source="CZsBmXI7kkxCmdzXljBZ-201" target="CZsBmXI7kkxCmdzXljBZ-233">
          <mxGeometry relative="1" as="geometry">
            <mxPoint x="3540" y="825" as="targetPoint" />
            <mxPoint x="2495" y="825" as="sourcePoint" />
            <Array as="points" />
          </mxGeometry>
        </mxCell>
        <mxCell id="CZsBmXI7kkxCmdzXljBZ-233" value="" style="ellipse;whiteSpace=wrap;html=1;aspect=fixed;fillColor=#620399;" vertex="1" parent="1">
          <mxGeometry x="3185" y="810" width="30" height="30" as="geometry" />
        </mxCell>
        <mxCell id="CZsBmXI7kkxCmdzXljBZ-236" value="" style="edgeStyle=orthogonalEdgeStyle;rounded=0;orthogonalLoop=1;jettySize=auto;html=1;endArrow=none;endFill=0;" edge="1" parent="1" target="CZsBmXI7kkxCmdzXljBZ-235">
          <mxGeometry relative="1" as="geometry">
            <mxPoint x="3290" y="913" as="targetPoint" />
            <mxPoint x="3288.57" y="360" as="sourcePoint" />
          </mxGeometry>
        </mxCell>
        <mxCell id="CZsBmXI7kkxCmdzXljBZ-235" value="" style="ellipse;whiteSpace=wrap;html=1;aspect=fixed;fillColor=#FF8000;" vertex="1" parent="1">
          <mxGeometry x="3275" y="600" width="30" height="30" as="geometry" />
        </mxCell>
        <mxCell id="CZsBmXI7kkxCmdzXljBZ-238" value="" style="edgeStyle=orthogonalEdgeStyle;rounded=0;orthogonalLoop=1;jettySize=auto;html=1;strokeColor=default;curved=0;endArrow=none;endFill=0;exitX=1;exitY=0.5;exitDx=0;exitDy=0;" edge="1" parent="1" source="CZsBmXI7kkxCmdzXljBZ-231" target="CZsBmXI7kkxCmdzXljBZ-237">
          <mxGeometry relative="1" as="geometry">
            <mxPoint x="3540" y="685" as="targetPoint" />
            <mxPoint x="3215" y="685" as="sourcePoint" />
            <Array as="points" />
          </mxGeometry>
        </mxCell>
        <mxCell id="CZsBmXI7kkxCmdzXljBZ-246" style="edgeStyle=orthogonalEdgeStyle;rounded=0;orthogonalLoop=1;jettySize=auto;html=1;endArrow=none;endFill=0;" edge="1" parent="1" source="CZsBmXI7kkxCmdzXljBZ-237" target="CZsBmXI7kkxCmdzXljBZ-239">
          <mxGeometry relative="1" as="geometry" />
        </mxCell>
        <mxCell id="CZsBmXI7kkxCmdzXljBZ-237" value="" style="ellipse;whiteSpace=wrap;html=1;aspect=fixed;fillColor=#80FF00;" vertex="1" parent="1">
          <mxGeometry x="3275" y="670" width="30" height="30" as="geometry" />
        </mxCell>
        <mxCell id="CZsBmXI7kkxCmdzXljBZ-240" value="" style="edgeStyle=orthogonalEdgeStyle;rounded=0;orthogonalLoop=1;jettySize=auto;html=1;endArrow=none;endFill=0;" edge="1" parent="1" source="CZsBmXI7kkxCmdzXljBZ-235">
          <mxGeometry relative="1" as="geometry">
            <mxPoint x="3290" y="670" as="targetPoint" />
            <mxPoint x="3290" y="630" as="sourcePoint" />
          </mxGeometry>
        </mxCell>
        <mxCell id="CZsBmXI7kkxCmdzXljBZ-239" value="" style="ellipse;whiteSpace=wrap;html=1;aspect=fixed;fillColor=#620399;" vertex="1" parent="1">
          <mxGeometry x="3275" y="810" width="30" height="30" as="geometry" />
        </mxCell>
        <mxCell id="CZsBmXI7kkxCmdzXljBZ-242" value="" style="edgeStyle=orthogonalEdgeStyle;rounded=0;orthogonalLoop=1;jettySize=auto;html=1;endArrow=none;endFill=0;" edge="1" parent="1" target="CZsBmXI7kkxCmdzXljBZ-241">
          <mxGeometry relative="1" as="geometry">
            <mxPoint x="3370" y="913" as="targetPoint" />
            <mxPoint x="3368.57" y="360" as="sourcePoint" />
          </mxGeometry>
        </mxCell>
        <mxCell id="CZsBmXI7kkxCmdzXljBZ-247" style="edgeStyle=orthogonalEdgeStyle;rounded=0;orthogonalLoop=1;jettySize=auto;html=1;entryX=0;entryY=0.5;entryDx=0;entryDy=0;endArrow=none;endFill=0;" edge="1" parent="1" source="CZsBmXI7kkxCmdzXljBZ-241" target="CZsBmXI7kkxCmdzXljBZ-243">
          <mxGeometry relative="1" as="geometry" />
        </mxCell>
        <mxCell id="CZsBmXI7kkxCmdzXljBZ-241" value="" style="ellipse;whiteSpace=wrap;html=1;aspect=fixed;fillColor=#80FF00;" vertex="1" parent="1">
          <mxGeometry x="3355" y="670" width="30" height="30" as="geometry" />
        </mxCell>
        <mxCell id="CZsBmXI7kkxCmdzXljBZ-244" value="" style="edgeStyle=orthogonalEdgeStyle;rounded=0;orthogonalLoop=1;jettySize=auto;html=1;strokeColor=default;curved=0;endArrow=none;endFill=0;exitX=1;exitY=0.5;exitDx=0;exitDy=0;entryX=0;entryY=0.5;entryDx=0;entryDy=0;" edge="1" parent="1" source="CZsBmXI7kkxCmdzXljBZ-237" target="CZsBmXI7kkxCmdzXljBZ-241">
          <mxGeometry relative="1" as="geometry">
            <mxPoint x="3540" y="685" as="targetPoint" />
            <mxPoint x="3305" y="685" as="sourcePoint" />
            <Array as="points" />
          </mxGeometry>
        </mxCell>
        <mxCell id="CZsBmXI7kkxCmdzXljBZ-243" value="" style="ellipse;whiteSpace=wrap;html=1;aspect=fixed;fillColor=#80FF00;" vertex="1" parent="1">
          <mxGeometry x="3435" y="670" width="30" height="30" as="geometry" />
        </mxCell>
        <mxCell id="CZsBmXI7kkxCmdzXljBZ-245" value="" style="ellipse;whiteSpace=wrap;html=1;aspect=fixed;fillColor=#80FF00;" vertex="1" parent="1">
          <mxGeometry x="3525" y="670" width="30" height="30" as="geometry" />
        </mxCell>
      </root>
    </mxGraphModel>
  </diagram>
</mxfile>
